<svg width="40" height="38" viewBox="0 0 40 38" fill="none" xmlns="http://www.w3.org/2000/svg">
<path d="M17.4646 0.147937C17.7495 0.00616819 18.0905 -0.0358326 18.4126 0.0311472L26.9317 1.79759C27.2396 1.8621 27.5065 2.02131 27.6787 2.24309C27.851 2.46488 27.9156 2.73273 27.8596 2.9926C33.7907 5.30129 38.2045 9.10321 39.9349 13.3848C40.0241 13.6059 40.0216 13.8454 39.9278 14.0652C39.834 14.2849 39.6544 14.4722 39.4176 14.5971C39.1808 14.7219 38.9005 14.7772 38.6215 14.754C38.3425 14.7309 38.0809 14.6306 37.8785 14.4693C34.844 12.0501 30.8716 9.94159 26.2371 8.41707L26.1744 8.62562C26.0938 8.89385 25.8885 9.12449 25.6035 9.26684C25.3185 9.40919 24.9772 9.45161 24.6546 9.38476L23.4383 9.13449L21.1637 16.7217C21.4862 16.7887 21.7636 16.9594 21.9347 17.1964C22.1059 17.4334 22.1569 17.7172 22.0765 17.9855L16.3135 37.2099C16.233 37.4781 16.0276 37.7088 15.7426 37.8511C15.4576 37.9935 15.1163 38.0359 14.7938 37.9691L8.70973 36.7073C8.38719 36.6403 8.10985 36.4695 7.93867 36.2326C7.76749 35.9956 7.71649 35.7117 7.79688 35.4435L13.5599 16.219C13.6405 15.9508 13.8458 15.7202 14.1308 15.5778C14.4158 15.4355 14.7571 15.3931 15.0797 15.4599L17.3543 7.87275L16.138 7.6204C15.978 7.58724 15.8275 7.52817 15.695 7.44657C15.5625 7.36498 15.4506 7.26245 15.3658 7.14487C15.2811 7.02729 15.225 6.89695 15.2008 6.76133C15.1767 6.6257 15.1849 6.48745 15.2251 6.35448L15.2878 6.14593C10.3373 5.68294 5.64013 5.99368 1.59498 6.94468C1.32518 7.0081 1.03762 6.99449 0.778221 6.90604C0.51882 6.81759 0.302545 6.6594 0.163946 6.45673C0.025346 6.25407 -0.0275834 6.01862 0.0136127 5.78801C0.0548089 5.55739 0.187754 5.3449 0.391211 5.1845C4.33354 2.08122 10.3774 0.446168 16.9179 0.721458C17.0114 0.482407 17.2055 0.277391 17.4646 0.147937Z" fill="#FBBF24"/>
</svg>
